<svg xmlns="http://www.w3.org/2000/svg" viewBox="0 0 319 473" version="1.1">
<path d="M M 73 211 L 72 212 L 70 212 L 64 218 L 64 219 L 63 220 L 63 222 L 62 223 L 62 224 L 61 225 L 61 228 L 60 229 L 60 234 L 59 235 L 59 245 L 60 246 L 60 252 L 61 253 L 61 257 L 62 258 L 62 261 L 63 262 L 63 264 L 64 265 L 64 267 L 65 268 L 65 270 L 66 271 L 66 272 L 67 273 L 67 275 L 68 276 L 68 277 L 69 278 L 69 279 L 70 280 L 70 281 L 71 282 L 71 283 L 72 284 L 72 286 L 73 287 L 73 288 L 75 290 L 75 291 L 76 292 L 76 293 L 77 294 L 77 295 L 79 297 L 79 298 L 80 299 L 80 300 L 82 302 L 82 303 L 84 305 L 84 306 L 87 309 L 87 310 L 89 312 L 89 313 L 91 315 L 91 316 L 95 320 L 95 321 L 103 329 L 103 330 L 104 330 L 108 334 L 109 334 L 110 335 L 111 335 L 112 336 L 113 336 L 114 337 L 116 337 L 117 338 L 121 338 L 122 339 L 126 339 L 127 338 L 129 338 L 130 337 L 132 337 L 134 335 L 135 335 L 143 327 L 143 326 L 145 324 L 145 323 L 147 321 L 147 320 L 149 318 L 149 317 L 150 316 L 150 315 L 151 314 L 151 313 L 153 311 L 153 310 L 155 308 L 155 307 L 156 306 L 156 305 L 157 304 L 157 303 L 159 301 L 159 300 L 160 299 L 160 298 L 162 296 L 162 295 L 164 293 L 164 292 L 165 291 L 166 291 L 168 289 L 170 289 L 171 288 L 174 288 L 175 289 L 176 289 L 177 290 L 178 290 L 182 294 L 182 295 L 184 297 L 184 298 L 186 300 L 186 301 L 187 302 L 187 303 L 189 305 L 189 306 L 190 307 L 190 308 L 191 309 L 191 310 L 192 311 L 192 312 L 194 314 L 194 315 L 195 316 L 195 317 L 197 319 L 197 320 L 199 322 L 199 323 L 201 325 L 201 326 L 204 329 L 204 330 L 207 333 L 208 333 L 211 336 L 212 336 L 213 337 L 215 337 L 216 338 L 228 338 L 229 337 L 231 337 L 232 336 L 233 336 L 235 334 L 236 334 L 238 332 L 239 332 L 248 323 L 248 322 L 252 318 L 252 317 L 255 314 L 255 313 L 257 311 L 257 310 L 259 308 L 259 307 L 261 305 L 261 304 L 263 302 L 263 301 L 265 299 L 265 298 L 266 297 L 266 296 L 267 295 L 267 294 L 269 292 L 269 291 L 270 290 L 270 289 L 271 288 L 271 287 L 272 286 L 272 285 L 273 284 L 273 283 L 274 282 L 274 281 L 275 280 L 275 279 L 276 278 L 276 277 L 277 276 L 277 274 L 278 273 L 278 272 L 279 271 L 279 269 L 280 268 L 280 266 L 281 265 L 281 263 L 282 262 L 282 260 L 283 259 L 283 256 L 284 255 L 284 251 L 285 250 L 285 241 L 286 240 L 286 236 L 285 235 L 285 229 L 284 228 L 284 225 L 283 224 L 283 223 L 282 222 L 282 220 L 280 218 L 280 217 L 275 212 L 273 212 L 272 211 L 265 211 L 264 212 L 262 212 L 261 213 L 260 213 L 254 219 L 254 220 L 252 222 L 252 223 L 251 224 L 251 225 L 250 226 L 250 227 L 249 228 L 249 229 L 248 230 L 248 231 L 247 232 L 247 233 L 246 234 L 246 236 L 245 237 L 245 238 L 244 239 L 244 240 L 243 241 L 243 243 L 242 244 L 242 245 L 241 246 L 241 247 L 240 248 L 240 250 L 239 251 L 239 252 L 238 253 L 238 254 L 237 255 L 237 257 L 236 258 L 236 259 L 235 260 L 235 262 L 234 263 L 234 264 L 233 265 L 233 266 L 232 267 L 232 268 L 231 269 L 231 270 L 229 272 L 229 273 L 225 277 L 224 277 L 223 278 L 222 278 L 221 279 L 217 279 L 216 278 L 214 278 L 213 277 L 212 277 L 206 271 L 206 270 L 204 268 L 204 267 L 202 265 L 202 264 L 200 262 L 200 261 L 198 259 L 198 258 L 197 257 L 197 256 L 195 254 L 195 253 L 193 251 L 193 250 L 190 247 L 190 246 L 185 241 L 184 241 L 182 239 L 181 239 L 180 238 L 178 238 L 177 237 L 166 237 L 165 238 L 163 238 L 161 240 L 160 240 L 153 247 L 153 248 L 151 250 L 151 251 L 150 252 L 150 253 L 147 256 L 147 257 L 146 258 L 146 259 L 144 261 L 144 262 L 142 264 L 142 265 L 141 266 L 141 267 L 139 269 L 139 270 L 136 273 L 136 274 L 133 277 L 132 277 L 131 278 L 129 278 L 128 279 L 125 279 L 124 278 L 122 278 L 116 272 L 116 271 L 114 269 L 114 268 L 113 267 L 113 266 L 112 265 L 112 264 L 111 263 L 111 262 L 110 261 L 110 260 L 109 259 L 109 258 L 108 257 L 108 256 L 107 255 L 107 254 L 106 253 L 106 251 L 105 250 L 105 249 L 104 248 L 104 246 L 103 245 L 103 244 L 102 243 L 102 242 L 101 241 L 101 239 L 100 238 L 100 237 L 99 236 L 99 235 L 98 234 L 98 232 L 97 231 L 97 230 L 96 229 L 96 228 L 95 227 L 95 226 L 94 225 L 94 224 L 92 222 L 92 221 L 89 218 L 89 217 L 86 214 L 85 214 L 83 212 L 81 212 L 80 211" fill="#00A0A0" stroke="none"/> 
<path d="M M 163 112 L 162 113 L 159 113 L 158 114 L 156 114 L 155 115 L 154 115 L 153 116 L 152 116 L 151 117 L 150 117 L 149 118 L 148 118 L 146 120 L 145 120 L 133 132 L 133 133 L 128 138 L 128 139 L 125 142 L 125 143 L 121 147 L 121 148 L 118 151 L 118 152 L 115 155 L 115 156 L 113 158 L 113 159 L 110 162 L 110 163 L 107 166 L 107 167 L 105 169 L 105 170 L 103 172 L 103 173 L 101 175 L 101 176 L 100 177 L 100 178 L 99 179 L 99 180 L 98 181 L 98 182 L 97 183 L 97 186 L 96 187 L 96 191 L 97 192 L 97 195 L 98 196 L 98 198 L 100 200 L 100 201 L 107 208 L 108 208 L 109 209 L 110 209 L 111 210 L 114 210 L 115 211 L 128 211 L 129 210 L 132 210 L 133 209 L 135 209 L 136 208 L 138 208 L 139 207 L 140 207 L 141 206 L 143 206 L 144 205 L 146 205 L 147 204 L 148 204 L 149 203 L 151 203 L 152 202 L 154 202 L 155 201 L 157 201 L 158 200 L 161 200 L 162 199 L 171 199 L 172 198 L 173 199 L 182 199 L 183 200 L 186 200 L 187 201 L 189 201 L 190 202 L 192 202 L 193 203 L 195 203 L 196 204 L 198 204 L 199 205 L 200 205 L 201 206 L 203 206 L 204 207 L 206 207 L 207 208 L 209 208 L 210 209 L 211 209 L 212 210 L 216 210 L 217 211 L 231 211 L 232 210 L 234 210 L 235 209 L 236 209 L 237 208 L 238 208 L 239 207 L 240 207 L 245 202 L 245 201 L 247 199 L 247 198 L 248 197 L 248 194 L 249 193 L 249 187 L 248 186 L 248 183 L 247 182 L 247 181 L 246 180 L 246 179 L 245 178 L 245 177 L 244 176 L 244 175 L 242 173 L 242 172 L 240 170 L 240 169 L 238 167 L 238 166 L 235 163 L 235 162 L 233 160 L 233 159 L 230 156 L 230 155 L 226 151 L 226 150 L 223 147 L 223 146 L 219 142 L 219 141 L 215 137 L 215 136 L 200 121 L 199 121 L 197 119 L 196 119 L 194 117 L 193 117 L 192 116 L 191 116 L 190 115 L 188 115 L 187 114 L 185 114 L 184 113 L 181 113 L 180 112" fill="#00A0A0" stroke="none"/> 
</svg>